<svg width="56" height="44" viewBox="0 0 56 44" fill="none" xmlns="http://www.w3.org/2000/svg">
<path d="M2.21395 44L2.21395 40.7725C6.72868 39.1038 10.2667 36.4691 12.8279 32.8683C15.3891 29.3114 16.6698 25.6008 16.6698 21.7365C16.6698 20.9022 16.5395 20.2874 16.2791 19.8922C16.1054 19.6287 15.9101 19.497 15.693 19.497C15.476 19.497 15.1504 19.6507 14.7163 19.9581C13.3271 20.9681 11.569 21.4731 9.44186 21.4731C6.96744 21.4731 4.77519 20.4411 2.86511 18.3772C0.955039 16.3573 -1.18695e-06 13.9421 -9.41262e-07 11.1317C-6.84054e-07 8.18962 1.10698 5.5988 3.32093 3.35928C5.49147 1.11976 8.13954 -3.69398e-07 11.2651 -9.61507e-08C14.9116 2.22637e-07 18.0589 1.51497 20.707 4.54491C23.355 7.57485 24.6791 11.6367 24.6791 16.7305C24.6791 22.6587 22.8775 27.9721 19.2744 32.6707C15.6713 37.3693 9.98449 41.1457 2.21395 44ZM33.5349 44L33.5349 40.7725C38.0496 39.1038 41.5876 36.4691 44.1488 32.8683C46.7101 29.3114 47.9907 25.6008 47.9907 21.7365C47.9907 20.9022 47.8605 20.2874 47.6 19.8922C47.4264 19.6287 47.231 19.497 47.014 19.497C46.7969 19.497 46.4713 19.6507 46.0372 19.9581C44.6481 20.9681 42.8899 21.4731 40.7628 21.4731C38.2884 21.4731 36.0961 20.4411 34.186 18.3772C32.276 16.3573 31.3209 13.9421 31.3209 11.1317C31.3209 8.18962 32.4279 5.5988 34.6419 3.35928C36.8124 1.11976 39.4605 2.36877e-06 42.5861 2.64201e-06C46.2326 2.9608e-06 49.3798 1.51497 52.0279 4.54491C54.676 7.57485 56 11.6367 56 16.7305C56 22.6587 54.1985 27.9721 50.5953 32.6707C46.9922 37.3693 41.3054 41.1457 33.5349 44Z" fill="#939393" fill-opacity="0.52"/>
</svg>
