<svg width="56" height="55" viewBox="0 0 56 55" fill="none" xmlns="http://www.w3.org/2000/svg">
<g filter="url(#filter0_i_76_175)">
<rect x="0.5" width="55" height="55" rx="27.5" fill="white"/>
<path d="M19.1464 33.4797C18.8486 34.6743 18.0886 35.7017 17.0335 36.3361C15.9784 36.9705 14.7146 37.1599 13.5199 36.8627C11.0343 36.2422 9.51923 33.7244 10.1386 31.2394C10.7579 28.7538 13.2735 27.236 15.7575 27.8559C18.2491 28.4676 19.7647 30.9931 19.1464 33.4803V33.4797Z" fill="white" stroke="#348888" stroke-width="0.60733"/>
<path d="M13.2222 33.9493L14.1468 30.2398L13.2222 33.9493ZM13.3516 30.0416L15.6351 30.6112C17.125 30.9826 16.793 32.7287 15.2058 32.3332C16.9448 32.7669 16.7678 34.8336 14.7104 34.3207C13.705 34.0695 12.6279 33.8019 12.6279 33.8019L13.3516 30.0416ZM13.717 31.9624L15.1747 32.3256L13.717 31.9624ZM14.4117 30.3059L14.61 29.5112L14.4117 30.3059ZM13.2882 34.8106L13.4865 34.0154L13.2882 34.8106ZM15.4712 30.5702L15.6695 29.7756L15.4712 30.5702ZM14.3483 35.075L14.5466 34.2798L14.3483 35.075Z" fill="white"/>
<path d="M14.3483 35.075L14.5466 34.2798M13.2222 33.9493L14.1468 30.2398L13.2222 33.9493ZM13.3516 30.0416L15.6351 30.6112C17.125 30.9826 16.793 32.7287 15.2058 32.3332C16.9448 32.7669 16.7678 34.8336 14.7104 34.3207C13.705 34.0695 12.6279 33.8019 12.6279 33.8019L13.3516 30.0416ZM13.717 31.9624L15.1747 32.3256L13.717 31.9624ZM14.4117 30.3059L14.61 29.5112L14.4117 30.3059ZM13.2882 34.8106L13.4865 34.0154L13.2882 34.8106ZM15.4712 30.5702L15.6695 29.7756L15.4712 30.5702Z" stroke="#348888" stroke-width="0.60733" stroke-linecap="square" stroke-linejoin="round"/>
<path d="M45.8691 23.7624C45.5713 24.957 44.8113 25.9844 43.7562 26.6188C42.7011 27.2532 41.4372 27.4426 40.2425 27.1454C37.7569 26.5249 36.2419 24.0071 36.8612 21.5221C37.4806 19.0365 39.9962 17.5187 42.4801 18.1386C44.9717 18.7503 46.4873 21.2758 45.8691 23.763V23.7624Z" fill="white" stroke="#348888" stroke-width="0.60733"/>
<path d="M39.9448 24.2321L40.8695 20.5225L39.9448 24.2321ZM40.0743 20.3243L42.3578 20.8939C43.8477 21.2653 43.5156 23.0114 41.9285 22.616C43.6674 23.0496 43.4905 25.1163 41.4331 24.6034C40.4276 24.3522 39.3506 24.0846 39.3506 24.0846L40.0743 20.3243ZM40.4396 22.2451L41.8973 22.6083L40.4396 22.2451ZM41.1343 20.5886L41.3326 19.7939L41.1343 20.5886ZM40.0109 25.0934L40.2092 24.2981L40.0109 25.0934ZM42.1939 20.853L42.3922 20.0583L42.1939 20.853ZM41.071 25.3577L41.2693 24.5625L41.071 25.3577Z" fill="white"/>
<path d="M41.071 25.3577L41.2693 24.5625M39.9448 24.2321L40.8695 20.5225L39.9448 24.2321ZM40.0743 20.3243L42.3578 20.8939C43.8477 21.2653 43.5156 23.0114 41.9285 22.616C43.6674 23.0496 43.4905 25.1163 41.4331 24.6034C40.4276 24.3522 39.3506 24.0846 39.3506 24.0846L40.0743 20.3243ZM40.4396 22.2451L41.8973 22.6083L40.4396 22.2451ZM41.1343 20.5886L41.3326 19.7939L41.1343 20.5886ZM40.0109 25.0934L40.2092 24.2981L40.0109 25.0934ZM42.1939 20.853L42.3922 20.0583L42.1939 20.853Z" stroke="#348888" stroke-width="0.60733" stroke-linecap="square" stroke-linejoin="round"/>
<path d="M22.7906 21.0735C23.1464 20.7177 23.1464 20.1409 22.7906 19.7851C22.4349 19.4294 21.8581 19.4294 21.5023 19.7851L19.073 22.2145C18.7172 22.5702 18.7172 23.147 19.073 23.5028L21.5023 25.9321C21.8581 26.2878 22.4349 26.2878 22.7906 25.9321C23.1464 25.5763 23.1464 24.9995 22.7906 24.6438L21.9165 23.7696H34.2931C34.7962 23.7696 35.2041 23.3617 35.2041 22.8586C35.2041 22.3555 34.7962 21.9476 34.2931 21.9476H21.9165L22.7906 21.0735Z" fill="#348888"/>
<path d="M33.6493 29.5024C33.2935 29.8582 33.2935 30.4349 33.6493 30.7907L34.5234 31.6649H22.1468C21.6437 31.6649 21.2358 32.0728 21.2358 32.5759C21.2358 33.079 21.6437 33.4869 22.1468 33.4869H34.5234L33.6493 34.3611C33.2935 34.7168 33.2935 35.2936 33.6493 35.6493C34.0051 36.0051 34.5818 36.0051 34.9376 35.6493L37.3669 33.22C37.7227 32.8642 37.7227 32.2875 37.3669 31.9317L34.9376 29.5024C34.5818 29.1467 34.0051 29.1467 33.6493 29.5024Z" fill="#348888"/>
</g>
<defs>
<filter id="filter0_i_76_175" x="0.5" y="0" width="55" height="56" filterUnits="userSpaceOnUse" color-interpolation-filters="sRGB">
<feFlood flood-opacity="0" result="BackgroundImageFix"/>
<feBlend mode="normal" in="SourceGraphic" in2="BackgroundImageFix" result="shape"/>
<feColorMatrix in="SourceAlpha" type="matrix" values="0 0 0 0 0 0 0 0 0 0 0 0 0 0 0 0 0 0 127 0" result="hardAlpha"/>
<feOffset dy="1"/>
<feGaussianBlur stdDeviation="2"/>
<feComposite in2="hardAlpha" operator="arithmetic" k2="-1" k3="1"/>
<feColorMatrix type="matrix" values="0 0 0 0 0 0 0 0 0 0 0 0 0 0 0 0 0 0 0.25 0"/>
<feBlend mode="normal" in2="shape" result="effect1_innerShadow_76_175"/>
</filter>
</defs>
</svg>
