<?xml version="1.0" standalone="no"?>
<!DOCTYPE svg PUBLIC "-//W3C//DTD SVG 20010904//EN"
 "http://www.w3.org/TR/2001/REC-SVG-20010904/DTD/svg10.dtd">
<svg version="1.0" xmlns="http://www.w3.org/2000/svg"
 width="700.000000pt" height="700.000000pt" viewBox="0 0 700.000000 700.000000"
 preserveAspectRatio="xMidYMid meet">
<metadata>
Created by potrace 1.14, written by Peter Selinger 2001-2017
</metadata>
<g transform="translate(0.000000,700.000000) scale(0.100000,-0.100000)"
fill="#000000" stroke="none">
<path d="M4007 6904 c-1 -1 -58 -4 -127 -8 -69 -4 -138 -8 -155 -10 -919 -111
-1691 -711 -2031 -1578 -58 -148 -122 -394 -140 -533 -3 -27 -7 -63 -10 -80
-7 -58 -19 -291 -18 -365 1 -93 14 -238 29 -320 4 -19 9 -46 11 -60 51 -288
187 -625 362 -890 199 -302 492 -584 802 -770 316 -190 651 -301 1050 -346 68
-8 711 -7 886 1 278 13 488 167 582 427 23 65 26 87 26 198 -1 112 -4 133 -29
200 -74 199 -217 334 -420 397 -55 16 -102 18 -525 18 -457 0 -467 0 -560 24
-246 62 -437 168 -605 336 -536 535 -470 1413 140 1873 135 101 397 211 542
227 21 2 57 6 80 9 22 3 205 8 405 11 199 3 377 8 393 11 236 39 430 205 501
428 108 339 -91 692 -446 793 -19 6 -736 12 -743 7z"/>
<path d="M3877 5104 c-1 -1 -51 -4 -112 -7 -129 -6 -213 -29 -302 -84 -91 -56
-130 -91 -182 -163 -85 -116 -123 -230 -123 -365 0 -272 155 -491 420 -594
l67 -26 460 -1 c253 0 478 -4 500 -8 213 -40 361 -99 520 -206 138 -93 300
-268 371 -400 12 -22 26 -45 31 -52 20 -26 73 -168 97 -259 174 -673 -242
-1363 -918 -1519 -141 -32 -177 -34 -1153 -45 -274 -3 -604 -8 -733 -10 -129
-2 -440 -6 -690 -10 -250 -3 -551 -8 -669 -10 -179 -3 -474 -8 -1351 -19
l-105 -1 1 -260 c1 -216 11 -953 13 -977 1 -7 127 -6 1056 7 220 3 533 8 695
10 162 2 482 7 710 11 228 3 532 7 675 9 143 2 487 6 765 9 477 6 673 11 765
22 349 40 647 134 940 297 709 392 1176 1092 1270 1900 13 116 14 439 2 512
-3 17 -11 66 -17 110 -37 273 -110 507 -241 770 -59 117 -204 342 -295 457
-66 84 -257 273 -354 351 -98 78 -254 187 -268 187 -6 0 -12 4 -14 9 -6 16
-290 156 -403 199 -110 41 -261 87 -319 98 -17 3 -49 9 -71 14 -22 5 -56 11
-75 15 -19 3 -46 7 -60 10 -82 15 -184 19 -523 19 -208 1 -379 0 -380 0z"/>
</g>
</svg>
