<svg width="122" height="121" viewBox="0 0 122 121" fill="none" xmlns="http://www.w3.org/2000/svg">
<path d="M93.6817 80.7272C94.8025 80.7259 95.8769 80.2801 96.6694 79.4876C97.4619 78.6952 97.9077 77.6207 97.909 76.5V34.2273C97.9077 33.1065 97.4619 32.0321 96.6694 31.2396C95.8769 30.4471 94.8025 30.0013 93.6817 30H28.8636C27.7429 30.0013 26.6684 30.4471 25.8759 31.2396C25.0835 32.0321 24.6377 33.1065 24.6364 34.2273V76.5C24.6377 77.6207 25.0835 78.6952 25.8759 79.4876C26.6684 80.2801 27.7429 80.7259 28.8636 80.7272H93.6817ZM30.2727 35.6364H92.2727V75.0909H30.2727V35.6364ZM19 86.3636H103.545V91.9999H19V86.3636Z" fill="#348888"/>
<path fill-rule="evenodd" clip-rule="evenodd" d="M53.9625 65.7298H69.456C71.2661 65.7298 72.7335 64.2624 72.7335 62.4523V55.8974C72.7335 55.4037 72.3333 55.0035 71.8396 55.0035H67.9663V45.6993C67.9663 44.0028 66.0487 43.0161 64.6683 44.0021L64.4597 44.1511C63.5295 44.8155 62.2695 44.8133 61.3349 44.1458C59.781 43.0358 57.6785 43.0358 56.1245 44.1458C55.1899 44.8133 53.9299 44.8155 52.9997 44.1511L52.7911 44.0021C51.4107 43.0161 49.4932 44.0028 49.4932 45.6993V61.2605C49.4932 63.7289 51.4941 65.7298 53.9625 65.7298ZM57.1636 45.6005C58.096 44.9345 59.3635 44.9345 60.2959 45.6005C61.8476 46.7089 63.9426 46.7174 65.4987 45.6058L65.7074 45.4568C65.9047 45.316 66.1785 45.4569 66.1785 45.6993V62.4523C66.1785 62.9888 66.3074 63.4952 66.536 63.9421H53.9625C52.4815 63.9421 51.2809 62.7416 51.2809 61.2605V45.6993C51.2809 45.4569 51.5548 45.316 51.752 45.4568L51.9606 45.6058C53.5168 46.7174 55.6118 46.7089 57.1636 45.6005ZM67.9663 62.4523V56.7912H70.9458V62.4523C70.9458 63.2752 70.2788 63.9421 69.456 63.9421C68.6332 63.9421 67.9663 63.2752 67.9663 62.4523Z" fill="#348888"/>
<path d="M60.6281 52.3364C60.6281 52.0184 60.3702 51.7605 60.0521 51.7605H55.4446C55.1265 51.7605 54.8687 52.0184 54.8687 52.3364C54.8687 52.6545 55.1265 52.9124 55.4446 52.9124H60.0521C60.3702 52.9124 60.6281 52.6545 60.6281 52.3364Z" fill="#348888"/>
<path d="M59.8601 54.6402C59.8601 54.3221 59.6023 54.0642 59.2842 54.0642H55.4446C55.1265 54.0642 54.8687 54.3221 54.8687 54.6402C54.8687 54.9583 55.1265 55.2161 55.4446 55.2161H59.2842C59.6023 55.2161 59.8601 54.9583 59.8601 54.6402Z" fill="#348888"/>
<path d="M60.0521 56.368C60.3702 56.368 60.6281 56.6259 60.6281 56.944C60.6281 57.262 60.3702 57.5199 60.0521 57.5199H55.4446C55.1265 57.5199 54.8687 57.262 54.8687 56.944C54.8687 56.6259 55.1265 56.368 55.4446 56.368H60.0521Z" fill="#348888"/>
</svg>
