<svg width="56" height="55" viewBox="0 0 56 55" fill="none" xmlns="http://www.w3.org/2000/svg">
<g filter="url(#filter0_i_76_228)">
<rect x="0.5" width="55" height="55" rx="27.5" fill="white"/>
<path d="M34.3999 14C30.6464 14 27.6 17.0595 27.6 20.8292C27.6 24.599 30.6464 27.6585 34.3999 27.6585C38.1535 27.6585 41.1999 24.599 41.1999 20.8292C41.1999 17.0595 38.1535 14 34.3999 14ZM34.3999 24.9268C32.1423 24.9268 30.32 23.0966 30.32 20.8292C30.32 18.5619 32.1423 16.7317 34.3999 16.7317C36.6575 16.7317 38.4799 18.5619 38.4799 20.8292C38.4799 23.0966 36.6575 24.9268 34.3999 24.9268ZM38.4799 33.1219H35.7599C35.7599 31.4829 34.7399 30.0078 33.2167 29.4341L24.8392 26.2926H14V41.317H22.16V39.3502L31.6799 41.9999L42.5599 38.5853V37.2194C42.5599 34.9521 40.7375 33.1219 38.4799 33.1219ZM19.44 38.5853H16.72V29.0243H19.44V38.5853ZM31.6391 39.1453L22.16 36.5365V29.0243H24.3496L32.2647 31.9882C32.7271 32.1658 33.0399 32.6165 33.0399 33.1219C33.0399 33.1219 30.32 33.0536 29.912 32.917L26.6752 31.838L25.8184 34.4331L29.0552 35.5121C29.7488 35.7443 30.4695 35.8536 31.2039 35.8536H38.4799C39.0103 35.8536 39.4863 36.1814 39.7039 36.6321L31.6391 39.1453Z" fill="#348888"/>
<path d="M39.0654 21.774C38.7757 22.9361 38.0363 23.9356 37.0099 24.5527C35.9835 25.1698 34.7539 25.3541 33.5917 25.065C31.1737 24.4614 29.6998 22.012 30.3023 19.5945C30.9048 17.1764 33.3521 15.6999 35.7685 16.3029C38.1924 16.898 39.6668 19.3549 39.0654 21.7745V21.774Z" fill="white" stroke="#348888" stroke-width="0.645692"/>
<path d="M33.3022 22.2307L34.2017 18.622L33.3022 22.2307ZM33.4281 18.4291L35.6496 18.9833C37.099 19.3446 36.776 21.0432 35.232 20.6585C36.9237 21.0804 36.7515 23.0909 34.75 22.592C33.7719 22.3476 32.7241 22.0873 32.7241 22.0873L33.4281 18.4291ZM33.7836 20.2978L35.2017 20.6511L33.7836 20.2978ZM34.4594 18.6863L34.6523 17.9132L34.4594 18.6863ZM33.3665 23.0686L33.5594 22.295L33.3665 23.0686ZM35.4902 18.9434L35.683 18.1704L35.4902 18.9434ZM34.3978 23.3258L34.5907 22.5522L34.3978 23.3258Z" fill="white"/>
<path d="M34.3978 23.3258L34.5907 22.5522M33.3022 22.2307L34.2017 18.622L33.3022 22.2307ZM33.4281 18.4291L35.6496 18.9833C37.099 19.3446 36.776 21.0432 35.232 20.6585C36.9237 21.0804 36.7515 23.0909 34.75 22.592C33.7719 22.3476 32.7241 22.0873 32.7241 22.0873L33.4281 18.4291ZM33.7836 20.2978L35.2017 20.6511L33.7836 20.2978ZM34.4594 18.6863L34.6523 17.9132L34.4594 18.6863ZM33.3665 23.0686L33.5594 22.295L33.3665 23.0686ZM35.4902 18.9434L35.683 18.1704L35.4902 18.9434Z" stroke="#348888" stroke-width="0.645692" stroke-linecap="square" stroke-linejoin="round"/>
</g>
<defs>
<filter id="filter0_i_76_228" x="0.5" y="0" width="55" height="56" filterUnits="userSpaceOnUse" color-interpolation-filters="sRGB">
<feFlood flood-opacity="0" result="BackgroundImageFix"/>
<feBlend mode="normal" in="SourceGraphic" in2="BackgroundImageFix" result="shape"/>
<feColorMatrix in="SourceAlpha" type="matrix" values="0 0 0 0 0 0 0 0 0 0 0 0 0 0 0 0 0 0 127 0" result="hardAlpha"/>
<feOffset dy="1"/>
<feGaussianBlur stdDeviation="2"/>
<feComposite in2="hardAlpha" operator="arithmetic" k2="-1" k3="1"/>
<feColorMatrix type="matrix" values="0 0 0 0 0 0 0 0 0 0 0 0 0 0 0 0 0 0 0.25 0"/>
<feBlend mode="normal" in2="shape" result="effect1_innerShadow_76_228"/>
</filter>
</defs>
</svg>
