<svg width="56" height="44" viewBox="0 0 56 44" fill="none" xmlns="http://www.w3.org/2000/svg">
<path d="M53.786 0V3.22754C49.2713 4.89621 45.7333 7.53094 43.1721 11.1317C40.6109 14.6886 39.3302 18.3992 39.3302 22.2635C39.3302 23.0978 39.4605 23.7126 39.7209 24.1078C39.8946 24.3713 40.0899 24.503 40.307 24.503C40.524 24.503 40.8496 24.3493 41.2837 24.0419C42.6729 23.0319 44.431 22.5269 46.5581 22.5269C49.0326 22.5269 51.2248 23.5589 53.1349 25.6228C55.045 27.6427 56 30.0579 56 32.8683C56 35.8104 54.893 38.4012 52.6791 40.6407C50.5085 42.8802 47.8605 44 44.7349 44C41.0884 44 37.9411 42.485 35.293 39.4551C32.645 36.4251 31.3209 32.3633 31.3209 27.2695C31.3209 21.3413 33.1225 16.0279 36.7256 11.3293C40.3287 6.63074 46.0155 2.85429 53.786 0ZM22.4651 0V3.22754C17.9504 4.89621 14.4124 7.53094 11.8512 11.1317C9.28992 14.6886 8.0093 18.3992 8.0093 22.2635C8.0093 23.0978 8.13953 23.7126 8.4 24.1078C8.57364 24.3713 8.76899 24.503 8.98605 24.503C9.2031 24.503 9.52868 24.3493 9.96279 24.0419C11.3519 23.0319 13.1101 22.5269 15.2372 22.5269C17.7116 22.5269 19.9039 23.5589 21.814 25.6228C23.724 27.6427 24.6791 30.0579 24.6791 32.8683C24.6791 35.8104 23.5721 38.4012 21.3581 40.6407C19.1876 42.8802 16.5395 44 13.414 44C9.76744 44 6.62016 42.485 3.97209 39.4551C1.32403 36.4251 0 32.3633 0 27.2695C0 21.3413 1.80155 16.0279 5.40465 11.3293C9.00775 6.63074 14.6946 2.85429 22.4651 0Z" fill="#939393" fill-opacity="0.52"/>
</svg>
