<svg width="122" height="121" viewBox="0 0 122 121" fill="none" xmlns="http://www.w3.org/2000/svg">
<path d="M40.3204 105C38.9094 105 37.5561 104.437 36.5583 103.436C35.5605 102.435 35 101.076 35 99.66V36.9743C35 34.0262 37.3831 31.6343 40.3204 31.6343H46.6237C46.8232 31.6343 47.0153 31.6825 47.1816 31.7678L47.1742 31.7641V16.623C47.1742 16.2781 47.4513 16 47.7949 16H70.0373C70.3809 16 70.658 16.2781 70.658 16.623V31.6751C70.7547 31.6509 70.854 31.6385 70.9536 31.638H76.5512C79.4885 31.638 81.8716 34.0299 81.8716 36.978V51.9263C82.0384 51.8447 82.2217 51.8028 82.4073 51.804H85.2043C85.8915 51.804 86.4494 52.3639 86.4494 53.0537V85.5832C86.4494 85.9146 86.3182 86.2325 86.0847 86.4668C85.8512 86.7012 85.5345 86.8329 85.2043 86.8329H82.4073C82.219 86.8335 82.0331 86.7904 81.8642 86.7068L81.8716 86.7105V99.66C81.8716 101.076 81.311 102.435 80.3133 103.436C79.3155 104.437 77.9622 105 76.5512 105H40.3204ZM67.3808 93.0184V97.2236C67.3818 97.3895 67.4479 97.5484 67.5647 97.6657C67.6816 97.783 67.8399 97.8494 68.0052 97.8503H72.934C73.0993 97.8494 73.2576 97.783 73.3744 97.6657C73.4913 97.5484 73.5574 97.3895 73.5584 97.2236V93.0184C73.5574 92.8528 73.4912 92.6944 73.3742 92.5776C73.2572 92.4609 73.099 92.3954 72.934 92.3954H67.9978C67.8331 92.3963 67.6754 92.4622 67.5586 92.5787C67.4419 92.6952 67.3753 92.8531 67.3734 93.0184H67.3808ZM55.7202 93.0184V97.2236C55.7211 97.3895 55.7872 97.5484 55.9041 97.6657C56.021 97.783 56.1793 97.8494 56.3446 97.8503H61.2697C61.435 97.8494 61.5932 97.783 61.7101 97.6657C61.827 97.5484 61.8931 97.3895 61.8941 97.2236V93.0184C61.8931 92.8528 61.8269 92.6944 61.7099 92.5776C61.5929 92.4609 61.4346 92.3954 61.2697 92.3954H56.3409C56.1762 92.3963 56.0185 92.4622 55.9017 92.5787C55.7849 92.6952 55.7184 92.8531 55.7165 93.0184H55.7202ZM44.0595 93.0184V97.2273C44.0595 97.5722 44.3366 97.8503 44.6802 97.8503H49.609C49.7743 97.8494 49.9326 97.783 50.0495 97.6657C50.1664 97.5484 50.2325 97.3895 50.2335 97.2236V93.0184C50.2325 92.8528 50.1663 92.6944 50.0493 92.5776C49.9323 92.4609 49.774 92.3954 49.609 92.3954H44.6802C44.5156 92.3954 44.3577 92.461 44.2413 92.5779C44.1249 92.6947 44.0595 92.8531 44.0595 93.0184ZM67.3771 83.4843V87.6895C67.3781 87.8554 67.4442 88.0143 67.561 88.1316C67.6779 88.2489 67.8362 88.3152 68.0015 88.3162H72.9303C73.0956 88.3152 73.2539 88.2489 73.3708 88.1316C73.4876 88.0143 73.5537 87.8554 73.5547 87.6895V83.4805C73.5547 83.3153 73.4893 83.1568 73.3729 83.04C73.2565 82.9232 73.0986 82.8575 72.934 82.8575H67.9941C67.8295 82.8575 67.6716 82.9232 67.5552 83.04C67.4388 83.1568 67.3734 83.3153 67.3734 83.4805V83.4843H67.3771ZM55.7165 83.4843V87.6895C55.7174 87.8554 55.7835 88.0143 55.9004 88.1316C56.0173 88.2489 56.1756 88.3152 56.3409 88.3162H61.2697C61.435 88.3152 61.5932 88.2489 61.7101 88.1316C61.827 88.0143 61.8931 87.8554 61.8941 87.6895V83.4805C61.8941 83.3153 61.8287 83.1568 61.7123 83.04C61.5959 82.9232 61.438 82.8575 61.2734 82.8575H56.3372C56.1726 82.8575 56.0147 82.9232 55.8983 83.04C55.7819 83.1568 55.7165 83.3153 55.7165 83.4805V83.4843ZM44.0558 83.4843V87.6932C44.0558 88.0381 44.3329 88.3162 44.6765 88.3162H49.6053C49.7707 88.3152 49.9289 88.2489 50.0458 88.1316C50.1627 88.0143 50.2288 87.8554 50.2298 87.6895V83.4805C50.2298 83.3153 50.1644 83.1568 50.048 83.04C49.9315 82.9232 49.7737 82.8575 49.609 82.8575H44.6765C44.5119 82.8575 44.354 82.9232 44.2376 83.04C44.1212 83.1568 44.0558 83.3153 44.0558 83.4805V83.4843ZM67.3734 73.9464V78.1554C67.3734 78.5003 67.6505 78.7784 67.9941 78.7784H72.9303C73.0949 78.7784 73.2528 78.7127 73.3692 78.5959C73.4856 78.4791 73.551 78.3206 73.551 78.1554V73.9464C73.55 73.7808 73.4838 73.6224 73.3668 73.5057C73.2498 73.3889 73.0916 73.3234 72.9266 73.3234H67.9978C67.8331 73.3244 67.6754 73.3902 67.5586 73.5067C67.4419 73.6233 67.3753 73.7812 67.3734 73.9464ZM55.7128 73.9464V78.1554C55.7128 78.5003 55.9899 78.7784 56.3335 78.7784H61.2697C61.4343 78.7784 61.5922 78.7127 61.7086 78.5959C61.825 78.4791 61.8904 78.3206 61.8904 78.1554V73.9464C61.8894 73.7808 61.8232 73.6224 61.7062 73.5057C61.5892 73.3889 61.4309 73.3234 61.266 73.3234H56.3372C56.1725 73.3244 56.0148 73.3902 55.898 73.5067C55.7812 73.6233 55.7147 73.7812 55.7128 73.9464ZM44.0521 73.9464V78.1554C44.0521 78.5003 44.3292 78.7784 44.6729 78.7784H49.609C49.7737 78.7784 49.9315 78.7127 50.048 78.5959C50.1644 78.4791 50.2298 78.3206 50.2298 78.1554V73.9464C50.2288 73.7808 50.1626 73.6224 50.0456 73.5057C49.9286 73.3889 49.7703 73.3234 49.6053 73.3234H44.6765C44.5119 73.3234 44.354 73.3891 44.2376 73.5059C44.1212 73.6227 44.0558 73.7812 44.0558 73.9464H44.0521ZM43.2762 49.0524V67.2677C43.2762 67.6126 43.5533 67.8907 43.897 67.8907H72.5756C72.7402 67.8907 72.8981 67.8251 73.0145 67.7082C73.1309 67.5914 73.1963 67.4329 73.1963 67.2677V49.0524C73.1954 48.8865 73.1293 48.7276 73.0124 48.6103C72.8955 48.493 72.7372 48.4266 72.5719 48.4257H43.9007C43.7353 48.4266 43.5771 48.493 43.4602 48.6103C43.3433 48.7276 43.2772 48.8865 43.2762 49.0524ZM41.4141 39.1066V43.5195C41.4141 44.5542 42.2491 45.3923 43.2799 45.3923H74.3121C74.807 45.3923 75.2816 45.1949 75.6315 44.8437C75.9814 44.4925 76.178 44.0162 76.178 43.5195V39.1066C76.178 38.61 75.9814 38.1336 75.6315 37.7824C75.2816 37.4312 74.807 37.2339 74.3121 37.2339H70.6543V40.9793H72.4574V41.6394H45.1458V40.9793H46.3318C46.6315 40.9793 46.9268 40.9068 47.1927 40.768L47.1816 40.7717V37.4416C46.9179 37.3044 46.6251 37.2331 46.3281 37.2339H43.2725C42.7783 37.2349 42.3047 37.4326 41.9556 37.7837C41.6065 38.1348 41.4104 38.6106 41.4104 39.1066H41.4141Z" fill="#348888"/>
</svg>
