<svg width="56" height="55" viewBox="0 0 56 55" fill="none" xmlns="http://www.w3.org/2000/svg">
<g filter="url(#filter0_i_76_160)">
<rect x="0.5" width="55" height="55" rx="27.5" fill="white"/>
<path d="M32.1518 18.9279C31.888 19.9863 31.2146 20.8965 30.2798 21.4586C29.345 22.0206 28.2253 22.1884 27.1668 21.9251C24.9647 21.3754 23.6224 19.1447 24.1711 16.943C24.7198 14.7409 26.9486 13.3962 29.1493 13.9454C31.3568 14.4873 32.6996 16.7248 32.1518 18.9284V18.9279Z" stroke="#348888" stroke-width="0.645692"/>
<path d="M27.9007 20.3414L28.0763 19.6369M26.9029 19.3441L27.7221 16.0576L26.9029 19.3441ZM27.0176 15.882L29.0407 16.3867C30.3608 16.7157 30.0666 18.2627 28.6604 17.9123C30.2011 18.2965 30.0443 20.1276 28.2215 19.6732C27.3307 19.4506 26.3765 19.2135 26.3765 19.2135L27.0176 15.882ZM27.3413 17.5838L28.6328 17.9056L27.3413 17.5838ZM27.9568 16.1162L28.1325 15.4121L27.9568 16.1162ZM26.9615 20.1072L27.1371 19.4027L26.9615 20.1072ZM28.8956 16.3504L29.0712 15.6463L28.8956 16.3504Z" stroke="#348888" stroke-width="0.645692" stroke-linecap="square" stroke-linejoin="round"/>
<path d="M28.0147 19.1264C27.6981 20.3965 26.8901 21.4888 25.7683 22.1632C24.6466 22.8377 23.3029 23.039 22.0327 22.723C19.3901 22.0634 17.7794 19.3866 18.4379 16.7446C19.0963 14.102 21.7708 12.4883 24.4117 13.1474C27.0607 13.7977 28.672 16.4827 28.0147 19.127V19.1264Z" fill="white" stroke="#348888" stroke-width="0.645692"/>
<path d="M21.7162 19.6257L22.6993 15.6819L21.7162 19.6257ZM21.8538 15.4711L24.2816 16.0767C25.8656 16.4716 25.5126 18.328 23.8252 17.9076C25.674 18.3686 25.4859 20.5658 23.2985 20.0206C22.2295 19.7535 21.0845 19.469 21.0845 19.469L21.8538 15.4711ZM22.2423 17.5133L23.7921 17.8994L22.2423 17.5133ZM22.9809 15.7521L23.1917 14.9073L22.9809 15.7521ZM21.7865 20.5414L21.9973 19.696L21.7865 20.5414ZM24.1074 16.0332L24.3182 15.1883L24.1074 16.0332ZM22.9136 20.8225L23.1243 19.977L22.9136 20.8225Z" fill="white"/>
<path d="M22.9136 20.8225L23.1243 19.977M21.7162 19.6257L22.6993 15.6819L21.7162 19.6257ZM21.8538 15.4711L24.2816 16.0767C25.8656 16.4716 25.5126 18.328 23.8252 17.9076C25.674 18.3686 25.4859 20.5658 23.2985 20.0206C22.2295 19.7535 21.0845 19.469 21.0845 19.469L21.8538 15.4711ZM22.2423 17.5133L23.7921 17.8994L22.2423 17.5133ZM22.9809 15.7521L23.1917 14.9073L22.9809 15.7521ZM21.7865 20.5414L21.9973 19.696L21.7865 20.5414ZM24.1074 16.0332L24.3182 15.1883L24.1074 16.0332Z" stroke="#348888" stroke-width="0.645692" stroke-linecap="square" stroke-linejoin="round"/>
<path fillRule="evenodd" clipRule="evenodd" d="M37.8415 25.2007C37.0235 23.2509 35.216 21.8493 33.0651 21.6197L32.2544 21.5332C28.1599 21.0962 24.0301 21.125 19.9419 21.6191L19.4048 21.684C17.3294 21.9349 15.6849 23.5796 15.4085 25.681C14.8638 29.8214 14.8638 34.017 15.4085 38.1574C15.6849 40.2588 17.3294 41.9034 19.4048 42.1544L19.9419 42.2193C24.0301 42.7134 28.1599 42.7422 32.2544 42.3052L33.0651 42.2187C35.216 41.9891 37.0235 40.5875 37.8415 38.6377C39.134 38.2474 40.1205 37.1108 40.2824 35.7066C40.5725 33.1902 40.5725 30.6481 40.2824 28.1319C40.1205 26.7276 39.134 25.591 37.8415 25.2007ZM32.0591 23.415C28.103 22.9927 24.1127 23.0206 20.1627 23.498L19.6255 23.5629C18.3957 23.7116 17.4214 24.6861 17.2576 25.9312C16.7348 29.9057 16.7348 33.9328 17.2576 37.9072C17.4214 39.1523 18.3958 40.1268 19.6255 40.2754L20.1627 40.3404C24.1127 40.8178 28.103 40.8457 32.0591 40.4234L32.8699 40.3369C33.9276 40.224 34.8636 39.6952 35.5121 38.9102C33.6366 39.021 31.736 38.9715 29.8826 38.7614C28.3041 38.5824 27.0274 37.3215 26.8412 35.7066C26.551 33.1902 26.551 30.6481 26.8412 28.1319C27.0274 26.5169 28.3041 25.256 29.8826 25.077C31.736 24.8669 33.6366 24.8174 35.5121 24.9283C34.8636 24.1433 33.9276 23.6144 32.8699 23.5015L32.0591 23.415ZM36.394 26.8919C36.3948 26.8968 36.3955 26.9016 36.3962 26.9065L36.4037 26.9555L36.6508 26.9166C36.7787 26.9294 36.9063 26.9431 37.0336 26.9575C37.7641 27.0403 38.3458 27.6258 38.4295 28.3517C38.7028 30.7219 38.7028 33.1164 38.4295 35.4867C38.3458 36.2125 37.7641 36.7981 37.0336 36.8809C36.9063 36.8954 36.7785 36.909 36.6508 36.9219L36.4037 36.8829L36.3962 36.9319C36.3955 36.9367 36.3948 36.9417 36.394 36.9464C34.3063 37.1381 32.1654 37.1162 30.09 36.8809C29.3594 36.7981 28.7777 36.2125 28.694 35.4867C28.4206 33.1164 28.4206 30.7219 28.694 28.3517C28.7777 27.6258 29.3594 27.0403 30.09 26.9575C32.1654 26.7222 34.3063 26.7004 36.394 26.8919Z" fill="#348888"/>
</g>
<defs>
<filter id="filter0_i_76_160" x="0.5" y="0" width="55" height="56" filterUnits="userSpaceOnUse" color-interpolation-filters="sRGB">
<feFlood flood-opacity="0" result="BackgroundImageFix"/>
<feBlend mode="normal" in="SourceGraphic" in2="BackgroundImageFix" result="shape"/>
<feColorMatrix in="SourceAlpha" type="matrix" values="0 0 0 0 0 0 0 0 0 0 0 0 0 0 0 0 0 0 127 0" result="hardAlpha"/>
<feOffset dy="1"/>
<feGaussianBlur stdDeviation="2"/>
<feComposite in2="hardAlpha" operator="arithmetic" k2="-1" k3="1"/>
<feColorMatrix type="matrix" values="0 0 0 0 0 0 0 0 0 0 0 0 0 0 0 0 0 0 0.25 0"/>
<feBlend mode="normal" in2="shape" result="effect1_innerShadow_76_160"/>
</filter>
</defs>
</svg>
