<svg width="56" height="55" viewBox="0 0 56 55" fill="none" xmlns="http://www.w3.org/2000/svg">
<g filter="url(#filter0_i_76_193)">
<rect x="0.5" width="55" height="55" rx="27.5" fill="white"/>
<path d="M40.6953 8.40942C41.2344 8.95532 41.2344 9.84042 40.6953 10.3863L39.6818 11.4123C45.737 18.5528 45.4241 29.3217 38.7425 36.086C35.5888 39.2787 31.554 41.035 27.4306 41.355V44.2043H30.6524C31.415 44.2043 32.0332 44.8301 32.0332 45.6021C32.0332 46.3741 31.415 47 30.6524 47H21.4472C20.6846 47 20.0664 46.3741 20.0664 45.6021C20.0664 44.8301 20.6846 44.2043 21.4472 44.2043H24.669V41.355C20.9754 41.0682 17.3526 39.6287 14.3705 37.0369L13.3571 38.0629C12.8179 38.6086 11.9436 38.6086 11.4044 38.0629C10.8652 37.517 10.8652 36.6319 11.4044 36.086L12.7062 34.768C13.6183 33.8445 15.0357 33.8918 15.9237 34.6974C18.7993 37.3064 22.4215 38.6114 26.0443 38.6127H26.0498H26.0557C29.9409 38.6111 33.8257 37.1099 36.7897 34.109C42.5207 28.3071 42.7146 19.0211 37.371 12.9846C36.5753 12.0857 36.5285 10.6508 37.4407 9.72736L38.7425 8.40942C39.2818 7.86353 40.1561 7.86353 40.6953 8.40942Z" fill="#348888"/>
<path fillRule="evenodd" clipRule="evenodd" d="M14 23.5C14 16.5964 19.5964 11 26.5 11C33.4035 11 39 16.5964 39 23.5C39 30.4035 33.4035 36 26.5 36C19.5964 36 14 30.4035 14 23.5ZM26.5 13.7778C21.1306 13.7778 16.7778 18.1306 16.7778 23.5C16.7778 24.12 16.8358 24.7265 16.9468 25.3144C17.7085 24.4837 18.8027 23.963 20.0185 23.963C22.3197 23.963 24.1852 25.8285 24.1852 28.1296C24.1852 29.8376 23.1574 31.3057 21.6866 31.9489C23.1058 32.7593 24.7489 33.2222 26.5 33.2222C31.21 33.2222 35.1376 29.873 36.0315 25.4263C34.7933 27.3322 32.6457 28.5926 30.2037 28.5926C26.3683 28.5926 23.2593 25.4835 23.2593 21.6481C23.2593 17.8128 26.3683 14.7037 30.2037 14.7037C30.3639 14.7037 30.5228 14.7091 30.6802 14.7198C29.4139 14.1159 27.9965 13.7778 26.5 13.7778ZM26.037 21.6481C26.037 19.347 27.9026 17.4815 30.2037 17.4815C32.5048 17.4815 34.3704 19.347 34.3704 21.6481C34.3704 23.9493 32.5048 25.8148 30.2037 25.8148C27.9026 25.8148 26.037 23.9493 26.037 21.6481ZM20.0185 26.7407C19.2515 26.7407 18.6296 27.3626 18.6296 28.1296C18.6296 28.8967 19.2515 29.5185 20.0185 29.5185C20.7856 29.5185 21.4074 28.8967 21.4074 28.1296C21.4074 27.3626 20.7856 26.7407 20.0185 26.7407Z" fill="#348888"/>
</g>
<defs>
<filter id="filter0_i_76_193" x="0.5" y="0" width="55" height="56" filterUnits="userSpaceOnUse" color-interpolation-filters="sRGB">
<feFlood flood-opacity="0" result="BackgroundImageFix"/>
<feBlend mode="normal" in="SourceGraphic" in2="BackgroundImageFix" result="shape"/>
<feColorMatrix in="SourceAlpha" type="matrix" values="0 0 0 0 0 0 0 0 0 0 0 0 0 0 0 0 0 0 127 0" result="hardAlpha"/>
<feOffset dy="1"/>
<feGaussianBlur stdDeviation="2"/>
<feComposite in2="hardAlpha" operator="arithmetic" k2="-1" k3="1"/>
<feColorMatrix type="matrix" values="0 0 0 0 0 0 0 0 0 0 0 0 0 0 0 0 0 0 0.25 0"/>
<feBlend mode="normal" in2="shape" result="effect1_innerShadow_76_193"/>
</filter>
</defs>
</svg>
