<svg width="122" height="121" viewBox="0 0 122 121" fill="none" xmlns="http://www.w3.org/2000/svg">
<path fillRule="evenodd" clipRule="evenodd" d="M92.0314 30.7059L60.8255 30L29.6194 30.7059C23.8369 30.8367 18.9408 35.0096 17.8952 40.6983C15.3683 54.4474 15.3683 68.5419 17.8952 82.2911C18.9408 87.98 23.8369 92.1528 29.6194 92.2836L60.8255 92.9895L92.0314 92.2836C97.8141 92.1528 102.71 87.98 103.756 82.2911C106.283 68.5419 106.283 54.4474 103.756 40.6983C102.71 35.0095 97.8141 30.8367 92.0314 30.7059ZM29.7668 37.2201L60.8255 36.5176L91.8841 37.2201C94.5787 37.2811 96.8597 39.2255 97.3471 41.8762C98.0131 45.499 98.4927 49.1473 98.7867 52.8067H22.8643C23.1582 49.1473 23.638 45.499 24.3039 41.8762C24.7911 39.2255 27.0724 37.2811 29.7668 37.2201ZM22.516 61.4947C22.516 68.0615 23.1119 74.6279 24.3039 81.1135C24.7911 83.7642 27.0724 85.7085 29.7668 85.7693L60.8255 86.4718L91.8841 85.7693C94.5787 85.7085 96.8597 83.7642 97.3471 81.1135C98.5391 74.6279 99.1351 68.0615 99.1351 61.4947H22.516Z" fill="#348888"/>
<path d="M52.212 69.62H52.576C53.808 69.62 54.816 69.872 54.816 71.356C54.816 72.868 53.794 73.12 52.548 73.12H52.212V69.62ZM52.212 74.17H53.024C54.2 74.17 55.712 74.478 55.712 75.962C55.712 77.46 54.438 77.824 53.22 77.824H52.212V74.17ZM50.896 79H53.36C55.222 79 57.028 78.16 57.028 76.046C57.028 74.814 56.16 73.596 54.914 73.372V73.344C55.628 73.008 56.048 72.112 56.048 71.342C56.048 68.962 54.172 68.444 52.184 68.444H50.896V79ZM58.3042 72.448V76.214C58.3042 78.006 59.1442 79.224 61.0762 79.224C63.0082 79.224 63.8482 78.006 63.8482 76.214V72.448H62.5882V76.074C62.5882 77.124 62.3222 78.048 61.0762 78.048C59.8302 78.048 59.5642 77.124 59.5642 76.074V72.448H58.3042ZM67.4703 77.88L64.8943 82.752H66.3223L71.6283 72.448H70.2143L68.1562 76.606L65.9443 72.448H64.4742L67.4703 77.88Z" fill="#348888"/>
</svg>
