<svg width="33" height="33" viewBox="0 0 33 33" fill="none" xmlns="http://www.w3.org/2000/svg">
<circle cx="16.5" cy="16.9688" r="14" fill="white"/>
<path d="M16.5 30.9688C24.232 30.9688 30.5 24.7007 30.5 16.9688C30.5 9.23676 24.232 2.96875 16.5 2.96875C8.76801 2.96875 2.5 9.23676 2.5 16.9688C2.5 22.6489 5.88269 27.5389 10.7435 29.7343C10.75 29.5828 10.7573 29.4439 10.7636 29.3248C10.7722 29.1625 10.7788 29.0369 10.7788 28.9663C10.7788 28.5457 11.0649 26.4591 11.0649 26.4591L12.8149 19.274C12.5457 18.8365 12.3438 17.911 12.3438 17.2043C12.3438 13.9399 14.1611 13.2332 15.2716 13.2332C16.6851 13.2332 17.0048 14.7644 17.0048 15.8918C17.0048 16.4882 16.6955 17.4216 16.3772 18.3821C16.0398 19.4002 15.6923 20.4487 15.6923 21.1586C15.6923 22.5385 17.0553 23.2284 17.9976 23.2284C20.488 23.2284 22.7764 20.0985 22.7764 16.9687C22.7764 13.8389 21.3125 10.0529 16.5168 10.0529C11.7212 10.0529 9.56731 13.7043 9.56731 16.4976C9.56731 18.3822 10.274 19.762 10.6274 19.9976C10.7284 20.0873 10.9 20.3644 10.7788 20.7548C10.6577 21.1452 10.4367 22.0168 10.3413 22.4038C10.3301 22.4936 10.2236 22.6461 9.88702 22.5385C9.46635 22.4038 6.79087 20.7211 6.79087 16.4976C6.79087 12.274 10.1058 7.36057 16.5168 7.36057C22.9279 7.36057 26.2091 11.6683 26.2091 16.9687C26.2091 22.2692 21.9183 25.6514 18.6538 25.6514C16.0423 25.6514 15.0192 24.4848 14.8341 23.9014L13.8413 27.6875C13.6069 28.3156 13.1696 29.4445 12.6304 30.4271C13.8594 30.7798 15.1576 30.9688 16.5 30.9688Z" fill="#BB0F23"/>
</svg>
