<svg width="306" height="30" viewBox="0 0 306 30" fill="none" xmlns="http://www.w3.org/2000/svg">
<path d="M2 4.18919C18.1113 2.83957 32.1119 1.73107 48.5 1.73107C54.3403 1.73107 62.6981 1.73107 68.2962 1.73107C73.4457 1.73107 78.5952 1.73107 83.7446 1.73107C96.1914 1.73107 108.638 1.73107 121.085 1.73107C128.201 1.73107 135.317 1.73107 142.433 1.73107C144.995 1.73107 147.557 1.73107 150.119 1.73107C153.743 1.73107 155.902 1.42829 159 1.73108C172.574 3.05771 188.188 2.96013 202.131 2.96013C219.234 2.96013 238.78 1.65325 254.997 3.88193C265 3.88193 275.064 3.96443 284.264 4.18919C289.236 4.31067 294.304 4.80372 299.634 4.80372C305.305 4.80372 303.826 7.61271 303.826 9.41269C303.826 11.8975 293.052 10.949 289.154 10.949C277.763 10.949 267.412 9.10543 255.618 9.10543C241.882 9.10543 228.255 8.71158 214.707 8.4909C192.419 8.12787 169.937 8.4909 147.634 8.4909C125.639 8.4909 103.644 8.4909 81.6486 8.4909C71.3673 8.4909 61.6513 9.10543 51.6057 9.10543C46.8833 9.10543 44.3159 10.2158 39.7283 10.3345C37.4068 10.3945 37.4068 15.8052 39.7283 15.8653C82.4834 16.9713 126.145 15.8653 168.983 15.8653C175.176 15.8653 193.854 17.2835 198.715 15.7287C203.562 14.1784 222.025 13.5639 227.671 14.9435C235.383 16.8276 248.957 15.8653 257.714 15.8653C262.198 15.8653 262.045 19.5524 257.015 19.5524C250.96 19.5524 244.905 19.5524 238.85 19.5524C224.465 19.5524 211.121 20.7815 196.93 20.7815C182.361 20.7815 167.792 20.7815 153.224 20.7815C145.903 20.7815 90.2195 19.9993 90.0327 21.396C89.8351 22.8731 88.5698 26.3123 93.5261 26.3123C99.4128 26.3123 104.507 26.4361 110.217 26.8926C122.526 27.8769 135.72 27.5413 148.411 27.5413C169.474 27.5413 190.538 27.5413 211.602 27.5413" stroke="#00A478" stroke-width="3" stroke-linecap="round"/>
</svg>
