<svg width="71" height="71" viewBox="0 0 71 71" fill="none" xmlns="http://www.w3.org/2000/svg">
<g filter="url(#filter0_i_188_5329)">
<rect width="71" height="71" rx="35.5" fill="white"/>
<path d="M37 63C22.6399 63 11 51.3601 11 37C11 22.6399 22.6399 11 37 11C51.3601 11 63 22.6399 63 37C63 51.3601 51.3601 63 37 63ZM30.6885 34.4065L37 28.095L43.3148 34.4097L46.9873 30.7372L37 20.75L27.016 30.734L30.6885 34.4065ZM20.75 37L24.4225 40.6725L28.095 37L24.4225 33.3275L20.75 37ZM30.6885 39.5935L27.0111 43.2611L27.016 43.266L37 53.25L46.9873 43.2627V43.2611L43.3148 39.5886L37 45.905L30.6885 39.5935ZM45.905 37L49.5775 40.6725L53.25 37L49.5775 33.3275L45.905 37ZM40.7245 36.9967H40.7261L37 33.2723L34.2456 36.025L33.9287 36.3419L33.2771 36.9951L33.2706 37L33.2771 37.0049L36.9984 40.7278L40.7261 37.0016L40.7278 37L40.7245 36.9984V36.9967Z" fill="#F3BA2F"/>
</g>
<defs>
<filter id="filter0_i_188_5329" x="0" y="0" width="71" height="72" filterUnits="userSpaceOnUse" color-interpolation-filters="sRGB">
<feFlood flood-opacity="0" result="BackgroundImageFix"/>
<feBlend mode="normal" in="SourceGraphic" in2="BackgroundImageFix" result="shape"/>
<feColorMatrix in="SourceAlpha" type="matrix" values="0 0 0 0 0 0 0 0 0 0 0 0 0 0 0 0 0 0 127 0" result="hardAlpha"/>
<feOffset dy="1"/>
<feGaussianBlur stdDeviation="2"/>
<feComposite in2="hardAlpha" operator="arithmetic" k2="-1" k3="1"/>
<feColorMatrix type="matrix" values="0 0 0 0 0 0 0 0 0 0 0 0 0 0 0 0 0 0 0.25 0"/>
<feBlend mode="normal" in2="shape" result="effect1_innerShadow_188_5329"/>
</filter>
</defs>
</svg>
