<svg width="62" height="62" viewBox="0 0 62 62" fill="none" xmlns="http://www.w3.org/2000/svg">
<g clip-path="url(#clip0_225_16223)">
<path fillRule="evenodd" clipRule="evenodd" d="M54.3082 18.2617C54.4221 19.1079 54.4867 20.0166 54.4867 20.9933C54.4867 23.6885 53.9832 26.719 52.4672 30.5079L44.3536 53.9666C52.2507 49.3614 57.5621 40.8057 57.5621 31.0056C57.5626 26.3881 56.3828 22.0453 54.3082 18.2617ZM31.4664 33.3293L23.4966 56.4871C25.876 57.1879 28.3927 57.5701 31.0003 57.5701C34.0938 57.5701 37.0601 57.0345 39.8211 56.0642C39.7489 55.9509 39.6842 55.8301 39.6318 55.6986L31.4664 33.3293ZM48.9327 29.6655C48.9327 31.9395 48.574 33.4977 47.4247 37.1723L44.2606 47.1061L34.6615 18.5519C36.2598 18.468 37.7015 18.2986 37.7015 18.2986C39.132 18.1291 38.9642 15.6824 37.531 15.7669C37.531 15.7669 33.2299 16.1042 30.4518 16.1042C27.8415 16.1042 23.4549 15.7669 23.4549 15.7669C22.0234 15.6824 21.8555 18.2152 23.2871 18.2986C23.2871 18.2986 24.6422 18.468 26.0727 18.5519L30.137 29.6842L30.0316 30.0151L24.2723 46.9484L14.7256 18.5525C16.3266 18.4686 17.7667 18.2991 17.7667 18.2991C19.1966 18.1296 19.0277 15.6824 17.5956 15.7669C17.5956 15.7669 13.2945 16.1037 10.5159 16.1042C10.0177 16.1042 9.43019 16.0919 8.80636 16.0732C13.2042 8.8224 21.7203 4.44381 31.0003 4.44381C37.9154 4.44381 44.2119 7.08721 48.9385 11.4166C46.2027 11.2659 44.1339 13.4202 44.1339 16.1101C44.1339 18.298 45.3955 20.1508 46.7415 22.3393C47.7534 24.1092 48.9327 26.3827 48.9327 29.6655ZM4.43793 31.0056C4.43793 41.5204 10.548 50.6064 19.4088 54.9128L6.73761 20.1957C5.26329 23.4993 4.43793 27.1552 4.43793 31.0056ZM31.0003 2.21308C46.8987 2.21308 59.7875 15.1019 59.7875 31.0003C59.7875 46.8987 46.8987 59.7875 31.0003 59.7875C15.1019 59.7875 2.21308 46.8987 2.21308 31.0003C2.21308 15.1019 15.1013 2.21308 31.0003 2.21308ZM31.0003 0C48.1212 0 62.0005 13.8793 62.0005 31.0003C62.0005 48.1212 48.1212 62.0005 31.0003 62.0005C13.8793 62.0005 0 48.1207 0 31.0003C0 13.8799 13.8793 0 31.0003 0Z" fill="#0F8CC3"/>
</g>
<defs>
<clipPath id="clip0_225_16223">
<rect width="62" height="62" fill="white"/>
</clipPath>
</defs>
</svg>
